<svg version="1.1" xmlns="http://www.w3.org/2000/svg" viewBox="0 0 467.24859342863056 158.77977946642955" width="467.24859342863056" height="158.77977946642955">
  <defs>
    <style class="style-fonts">
    </style>
  </defs>
  <g stroke-linecap="round"><g transform="translate(46.209351453921045 100.7192593628622) rotate(0 189.4467738388771 -22.87060000886686)" fill-rule="evenodd"><path d="M0 0 L73.92 -42.32 L119.38 -62.6 L149.11 -73.99 L177.54 -80.34 L198.78 -80.09 L214.91 -77.04 L240.74 -69.25 L266.28 -61.21 L378.89 -6.91 L240.13 28.67 L207.91 34.13 L168.63 34.6 L105.04 25.18 L0 0" stroke="none" stroke-width="0" fill="#fbf4f4" fill-rule="evenodd"></path><path d="M0 0 C15.36 -8.79, 30.72 -17.59, 73.92 -42.32 M0 0 C20.24 -11.59, 40.48 -23.17, 73.92 -42.32 M73.92 -42.32 C85.95 -47.69, 97.98 -53.06, 119.38 -62.6 M73.92 -42.32 C85.06 -47.29, 96.21 -52.27, 119.38 -62.6 M119.38 -62.6 C127.73 -65.8, 136.07 -69, 149.11 -73.99 M119.38 -62.6 C130.5 -66.86, 141.62 -71.12, 149.11 -73.99 M149.11 -73.99 C160.05 -76.43, 170.98 -78.87, 177.54 -80.34 M149.11 -73.99 C159.55 -76.32, 169.99 -78.65, 177.54 -80.34 M177.54 -80.34 C185.3 -80.25, 193.05 -80.16, 198.78 -80.09 M177.54 -80.34 C184.1 -80.26, 190.66 -80.19, 198.78 -80.09 M198.78 -80.09 C205.17 -78.88, 211.56 -77.67, 214.91 -77.04 M198.78 -80.09 C204.2 -79.07, 209.62 -78.04, 214.91 -77.04 M214.91 -77.04 C224.26 -74.22, 233.61 -71.4, 240.74 -69.25 M214.91 -77.04 C222.97 -74.61, 231.03 -72.18, 240.74 -69.25 M240.74 -69.25 C250.49 -66.18, 260.24 -63.11, 266.28 -61.21 M240.74 -69.25 C248.49 -66.81, 256.24 -64.37, 266.28 -61.21 M266.28 -61.21 C303.98 -43.03, 341.69 -24.85, 378.89 -6.91 M266.28 -61.21 C294.89 -47.41, 323.5 -33.61, 378.89 -6.91 M378.89 -6.91 C325.35 6.82, 271.8 20.55, 240.13 28.67 M378.89 -6.91 C342.86 2.33, 306.83 11.57, 240.13 28.67 M240.13 28.67 C230.16 30.36, 220.18 32.05, 207.91 34.13 M240.13 28.67 C232.28 30, 224.43 31.33, 207.91 34.13 M207.91 34.13 C199.43 34.23, 190.95 34.33, 168.63 34.6 M207.91 34.13 C198.82 34.23, 189.72 34.34, 168.63 34.6 M168.63 34.6 C151.16 32.01, 133.68 29.42, 105.04 25.18 M168.63 34.6 C154.23 32.46, 139.84 30.33, 105.04 25.18 M105.04 25.18 C79.67 19.1, 54.29 13.02, 0 0 M105.04 25.18 C75.25 18.04, 45.45 10.9, 0 0 M0 0 C0 0, 0 0, 0 0 M0 0 C0 0, 0 0, 0 0" stroke="#2c2a2a" stroke-width="4" fill="none"></path></g></g><mask></mask><g stroke-linecap="round"><g transform="translate(11.59093345941983 66.85190141768544) rotate(0 222.68763653343194 -28.337672297260042)"><path d="M-0.09 -0.51 C36.38 -10.1, 145.71 -55.76, 220 -56.83 C294.29 -57.91, 407.92 -15.62, 445.66 -6.97 M-1.59 -1.83 C35.16 -11.28, 147.89 -54.66, 222.32 -55.38 C296.76 -56.09, 407.56 -14.21, 445.04 -6.13" stroke="#2c2a2a" stroke-width="4" fill="none"></path></g></g><mask></mask><g stroke-linecap="round"><g transform="translate(14.770034112199937 108.23429526889959) rotate(0 217.81531465503394 18.377519910779256)"><path d="M-0.37 -0.37 C36.68 6.26, 149.32 39.69, 222.08 39.25 C294.85 38.81, 400.67 4.04, 436.21 -3.03 M1.64 -1.61 C38.51 5.24, 148.57 40.57, 220.93 40.55 C293.28 40.52, 400.01 5.36, 435.75 -1.75" stroke="#2c2a2a" stroke-width="4" fill="none"></path></g></g><mask></mask><g stroke-linecap="round"><g transform="translate(200.79662029142764 132.81009477213524) rotate(0 35.5884457461425 -54.76003215225148)" fill-rule="evenodd"><path d="M0 0 C-3.03 -5.47, -15.09 -21.27, -18.21 -32.8 C-21.33 -44.33, -21.5 -57.12, -18.71 -69.17 C-15.92 -81.22, -11.01 -97.96, -1.48 -105.11 C8.05 -112.25, 27.42 -111.55, 38.47 -112.03 C49.52 -112.51, 57.87 -111.83, 64.81 -107.99 C71.75 -104.15, 75.93 -99.05, 80.11 -88.98 C84.29 -78.92, 89.07 -59.85, 89.89 -47.6 C90.7 -35.35, 86.77 -22.88, 85 -15.46 C83.24 -8.04, 82.03 -5.66, 79.28 -3.08 C76.53 -0.49, 74.42 -0.88, 68.5 0.05 C62.58 0.98, 51.51 2.13, 43.76 2.51 C36.01 2.89, 27.56 2.38, 22 2.34 C16.45 2.29, 14.12 2.63, 10.45 2.24 C6.78 1.85, 1.74 0.37, 0 0" stroke="none" stroke-width="0" fill="#fbf4f4" fill-rule="evenodd"></path><path d="M0 0 C-3.03 -5.47, -15.09 -21.27, -18.21 -32.8 C-21.33 -44.33, -21.5 -57.12, -18.71 -69.17 C-15.92 -81.22, -11.01 -97.96, -1.48 -105.11 C8.05 -112.25, 27.42 -111.55, 38.47 -112.03 C49.52 -112.51, 57.87 -111.83, 64.81 -107.99 C71.75 -104.15, 75.93 -99.05, 80.11 -88.98 C84.29 -78.92, 89.07 -59.85, 89.89 -47.6 C90.7 -35.35, 86.77 -22.88, 85 -15.46 C83.24 -8.04, 82.03 -5.66, 79.28 -3.08 C76.53 -0.49, 74.42 -0.88, 68.5 0.05 C62.58 0.98, 51.51 2.13, 43.76 2.51 C36.01 2.89, 27.56 2.38, 22 2.34 C16.45 2.29, 14.12 2.63, 10.45 2.24 C6.78 1.85, 1.74 0.37, 0 0 M0 0 C-3.03 -5.47, -15.09 -21.27, -18.21 -32.8 C-21.33 -44.33, -21.5 -57.12, -18.71 -69.17 C-15.92 -81.22, -11.01 -97.96, -1.48 -105.11 C8.05 -112.25, 27.42 -111.55, 38.47 -112.03 C49.52 -112.51, 57.87 -111.83, 64.81 -107.99 C71.75 -104.15, 75.93 -99.05, 80.11 -88.98 C84.29 -78.92, 89.07 -59.85, 89.89 -47.6 C90.7 -35.35, 86.77 -22.88, 85 -15.46 C83.24 -8.04, 82.03 -5.66, 79.28 -3.08 C76.53 -0.49, 74.42 -0.88, 68.5 0.05 C62.58 0.98, 51.51 2.13, 43.76 2.51 C36.01 2.89, 27.56 2.38, 22 2.34 C16.45 2.29, 14.12 2.63, 10.45 2.24 C6.78 1.85, 1.74 0.37, 0 0" stroke="#2c2a2a" stroke-width="4" fill="none"></path></g></g><mask></mask></svg>